<?xml version="1.0" encoding="UTF-8" standalone="no"?>
<svg
   xmlns:dc="http://purl.org/dc/elements/1.1/"
   xmlns:cc="http://creativecommons.org/ns#"
   xmlns:rdf="http://www.w3.org/1999/02/22-rdf-syntax-ns#"
   xmlns:svg="http://www.w3.org/2000/svg"
   xmlns="http://www.w3.org/2000/svg"
   xmlns:sodipodi="http://sodipodi.sourceforge.net/DTD/sodipodi-0.dtd"
   xmlns:inkscape="http://www.inkscape.org/namespaces/inkscape"
   x="0px"
   y="0px"
   width="96px"
   height="16px"
   viewBox="0 0 96 16"
   version="1.1"
   id="svg36"
   sodipodi:docname="cd-nav-icons.svg"
   inkscape:version="0.92.4 (5da689c313, 2019-01-14)">
  <metadata
     id="metadata42">
    <rdf:RDF>
      <cc:Work
         rdf:about="">
        <dc:format>image/svg+xml</dc:format>
        <dc:type
           rdf:resource="http://purl.org/dc/dcmitype/StillImage" />
      </cc:Work>
    </rdf:RDF>
  </metadata>
  <defs
     id="defs40" />
  <sodipodi:namedview
     pagecolor="#ffffff"
     bordercolor="#666666"
     borderopacity="1"
     objecttolerance="10"
     gridtolerance="10"
     guidetolerance="10"
     inkscape:pageopacity="0"
     inkscape:pageshadow="2"
     inkscape:window-width="1366"
     inkscape:window-height="705"
     id="namedview38"
     showgrid="false"
     inkscape:zoom="5.9791667"
     inkscape:cx="42.492086"
     inkscape:cy="7.4638068"
     inkscape:window-x="-8"
     inkscape:window-y="-8"
     inkscape:window-maximized="1"
     inkscape:current-layer="svg36" />
  <g
     transform="translate(0, 0)"
     id="g8">
    <path
       fill="#585c64"
       d="M15,16H1c-0.6,0-1-0.4-1-1V1c0-0.6,0.4-1,1-1h14c0.6,0,1,0.4,1,1v14C16,15.6,15.6,16,15,16z M2,14h12V2H2V14  z"
       id="path2" />
    <path
       data-color="color-2"
       fill="#585c64"
       d="M6,4c0.6,0,1,0.4,1,1S6.6,6,6,6S5,5.6,5,5S5.4,4,6,4z"
       id="path4" />
    <polygon
       data-color="color-2"
       fill="#585c64"
       points="3,12 5,8 7,10 10,6 13,12 "
       id="polygon6" />
  </g>
  <g
     transform="translate(16, 0)"
     id="g14">
    <path
       fill="#585c64"
       d="M8,2c1.1,0,2,0.9,2,2v1c0,1.1-0.9,2-2,2S6,6.1,6,5V4C6,2.9,6.9,2,8,2 M8,0C5.8,0,4,1.8,4,4v1  c0,2.2,1.8,4,4,4s4-1.8,4-4V4C12,1.8,10.2,0,8,0L8,0z"
       id="path10" />
    <path
       data-color="color-2"
       fill="#585c64"
       d="M9,12c1.5,0,2.8,0.8,3.5,2l-8.9,0c0.7-1.2,2-2,3.5-2H9 M9,10H7c-3.3,0-6,2.7-6,6v0h14v0  C15,12.7,12.3,10,9,10L9,10z"
       id="path12" />
  </g>
  <g
     transform="translate(32, 0)"
     id="g20">
    <path
       fill="#585c64"
       d="M12,0H1v16h11c1.7,0,3-1.3,3-3V3C15,1.3,13.7,0,12,0z M13,13c0,0.6-0.4,1-1,1H3V2h9c0.6,0,1,0.4,1,1V13z"
       id="path16" />
    <polygon
       data-color="color-2"
       fill="#585c64"
       points="5,9 7,7 9,9 9,3 5,3 "
       id="polygon18" />
  </g>
  <g
     transform="translate(48, 0)"
     id="g24">
    <path
       fill="#585c64"
       d="M8,0C3.6,0,0,3.1,0,7c0,3.9,3.6,7,8,7c0.2,0,0.4,0,0.6,0l5.4,2v-4.4c1.2-1.2,2-2.8,2-4.6C16,3.1,12.4,0,8,0z   M12,10.8v2.3L8.9,12c0,0-0.7,0-0.9,0c-3.3,0-6-2.2-6-5s2.7-5,6-5s6,2.2,6,5C14,9.2,12,10.8,12,10.8z"
       id="path22" />
  </g>
  <g
     transform="translate(64, 0)"
     id="g28">
    <path
       fill="#585c64"
       d="M8,0C3.6,0,0,3.6,0,8s3.6,8,8,8s8-3.6,8-8S12.4,0,8,0z M13.9,9H8.7L6.9,4.6L5.1,5.4L6.5,9H2.1  C2,8.7,2,8.3,2,8c0-3.3,2.7-6,6-6s6,2.7,6,6C14,8.3,14,8.7,13.9,9z"
       id="path26" />
  </g>
  <g
     transform="translate(80, 0)"
     id="g34">
    <path
       data-color="color-2"
       fill="#585c64"
       d="M10,14H6c0,1.1,0.9,2,2,2S10,15.1,10,14z"
       id="path30" />
    <path
       fill="#585c64"
       d="M15,11h-0.5C13.8,10.3,13,9.3,13,8V5c0-2.8-2.2-5-5-5S3,2.2,3,5v3c0,1.3-0.8,2.3-1.5,3H1c-0.6,0-1,0.4-1,1  s0.4,1,1,1h14c0.6,0,1-0.4,1-1S15.6,11,15,11z"
       id="path32" />
  </g>
  <path
     style="fill:#000000;fill-opacity:1;stroke-width:0.16724738"
     d="M 0.44985711,15.735072 0.07814876,15.474717 V 7.991518 c 0,-5.5972697 0.05057999,-7.53377935 0.20069686,-7.68389623 0.1501149,-0.1501149 2.08607938,-0.20069686 7.68143348,-0.20069686 6.5776729,0 7.5124639,0.0317269 7.7435539,0.26281733 0.230948,0.23094771 0.262818,1.15371736 0.262818,7.60975616 0,7.1239426 -0.01015,7.3570916 -0.334495,7.6814336 -0.32419,0.324189 -0.557491,0.334495 -7.5725428,0.334495 -6.280314,0 -7.28723193,-0.03445 -7.60975609,-0.260355 z M 14.08723,8.0093639 14.043306,2.0302699 7.9805878,1.9863718 1.91787,1.9424737 v 6.0229921 6.0229922 h 6.1066421 6.1066419 z"
     id="path44"
     inkscape:connector-curvature="0" />
  <path
     style="fill:#000000;fill-opacity:1;stroke-width:0.16724738"
     d="M 1.2078272,15.845176 C 0.7713106,15.781471 0.33184483,15.647032 0.23123658,15.546424 0.01190657,15.327094 0.07974455,0.55104805 0.30109727,0.32980463 0.37772592,0.25321381 3.8171384,0.1905486 7.9442361,0.1905486 c 5.9328559,0 7.5493459,0.0455057 7.7213019,0.21736181 0.171885,0.17178475 0.217489,1.75738459 0.217489,7.56188949 0,6.8258921 -0.02108,7.3656231 -0.298465,7.6432651 -0.275676,0.275928 -0.805625,0.300616 -6.9407667,0.323339 -3.6532658,0.01353 -6.9994515,-0.02752 -7.4359681,-0.09123 z M 14.126929,7.9675521 V 1.9466462 H 8.0223996 1.91787 v 6.0209059 6.0209059 h 6.1045296 6.1045294 z"
     id="path46"
     inkscape:connector-curvature="0" />
  <path
     style="fill:#000000;fill-opacity:1;stroke-width:0.16724738"
     d="M 4.0473365,10.059129 5.0042362,8.1367678 5.9328018,9.0556442 c 0.5107111,0.5053821 0.9800579,0.9188765 1.042993,0.9188765 0.062935,0 0.7666362,-0.8683323 1.5637806,-1.9296274 0.7971442,-1.0612952 1.4688016,-1.907985 1.4925706,-1.8815331 0.02377,0.026452 0.691824,1.3463522 1.484565,2.9331118 l 1.441347,2.885017 H 8.0242474 3.0904368 Z"
     id="path48"
     inkscape:connector-curvature="0" />
  <path
     style="fill:#000000;fill-opacity:1;stroke-width:0.16724738"
     d="M 5.3583877,5.6977661 C 5.0473647,5.3867431 5.01211,4.6057163 5.2962672,4.3215591 5.6230868,3.9947395 6.5637009,4.073538 6.7621598,4.4443619 7.3045299,5.4577896 6.149615,6.4889934 5.3583877,5.6977661 Z"
     id="path50"
     inkscape:connector-curvature="0" />
  <path
     style="fill:#000000;fill-opacity:1;stroke-width:0.16724738"
     d="m 17.183153,15.09853 c 0.180773,-1.75152 1.446689,-3.51742 3.134728,-4.372814 1.836237,-0.9304916 5.517052,-0.9304916 7.353289,0 1.667478,0.844975 2.860715,2.48687 3.150556,4.335168 l 0.146551,0.934543 h -6.938846 -6.938846 z m 11.163442,-1.437768 c -0.230599,-0.430879 -1.122834,-1.103185 -1.888802,-1.423227 -0.964228,-0.40288 -4.002126,-0.346922 -4.971979,0.09159 -0.728243,0.329265 -1.839721,1.250542 -1.839721,1.524899 0,0.07394 1.997073,0.134439 4.43794,0.134439 4.355425,0 4.434679,-0.0061 4.262562,-0.327696 z"
     id="path52"
     inkscape:connector-curvature="0" />
  <path
     style="fill:#000000;fill-opacity:1;stroke-width:0.16724738"
     d="M 22.7835,8.7430371 C 21.348053,8.2078182 20.45003,7.1653768 20.140668,5.6751898 19.482015,2.5024741 21.419971,-0.07111442 24.310302,0.13795323 26.340081,0.28477422 27.743372,1.7675809 27.950371,3.9842825 28.138076,5.9943669 27.312453,7.7151696 25.786928,8.4934342 24.927715,8.9317721 23.588239,9.0430906 22.7835,8.7430371 Z m 2.345498,-2.039993 c 0.592472,-0.4149836 0.872496,-1.13884 0.872496,-2.2553885 0,-1.2295869 -0.327525,-1.8784827 -1.143613,-2.265742 -0.833146,-0.3953535 -1.658412,-0.2147868 -2.326771,0.5090925 -0.498249,0.5396391 -0.543554,0.6802132 -0.543554,1.6865767 0,1.7823035 0.624001,2.586485 2.006969,2.586485 0.419649,0 0.929189,-0.1172366 1.134473,-0.2610237 z"
     id="path54"
     inkscape:connector-curvature="0" />
  <path
     style="fill:#000000;fill-opacity:1;stroke-width:0.16724738"
     d="M 33.025884,8.0511758 V 0.10692491 h 5.870194 c 6.545296,0 6.61619,0.0108008 7.477226,1.13917469 l 0.450489,0.59036 0.05182,5.7833163 c 0.03383,3.7757841 -0.01043,5.9956411 -0.127501,6.3949831 -0.218389,0.74493 -1.115036,1.566348 -1.968526,1.803364 -0.382205,0.106139 -2.828361,0.175807 -6.192724,0.176371 l -5.560976,9.33e-4 z M 44.807341,13.61675 c 0.222381,-0.317494 0.260355,-1.146875 0.260355,-5.6864115 0,-5.1053713 -0.01328,-5.3279801 -0.337095,-5.6517978 C 44.406332,1.9542718 44.213834,1.9431356 39.671367,1.9858578 l -4.722138,0.044412 -0.04392,5.979094 -0.04393,5.9790942 h 4.842803 c 4.814821,0 4.844308,-0.0021 5.103158,-0.371708 z"
     id="path56"
     inkscape:connector-curvature="0" />
  <path
     style="fill:#000000;fill-opacity:1;stroke-width:0.16724738"
     d="M 37.039821,5.99716 V 3.1173779 h 1.923345 1.923345 V 6.0005773 8.8837769 L 39.928165,7.9254303 38.969818,6.9670837 38.00482,7.9220128 37.039821,8.8769419 Z"
     id="path58"
     inkscape:connector-curvature="0" />
  <path
     style="fill:#000000;fill-opacity:1;stroke-width:0.16724738"
     d="m 59.135821,14.895586 c -1.468088,-0.553569 -2.674025,-0.90826 -3.094076,-0.910032 -1.10535,-0.0047 -2.949925,-0.457419 -4.033283,-0.989979 -1.34798,-0.662645 -2.619719,-1.943157 -3.297115,-3.3198593 -0.505624,-1.0276037 -0.549333,-1.244223 -0.546552,-2.7087119 0.0038,-2.0161468 0.447385,-3.0784414 1.872743,-4.485111 1.667733,-1.64586686 3.508719,-2.3766284 5.978188,-2.37298285 3.30984,0.004886 6.062767,1.61845665 7.325616,4.29375655 0.47507,1.0064182 0.537821,1.3061556 0.536237,2.5614013 -0.0015,1.1993838 -0.07438,1.5784631 -0.46618,2.4250871 -0.255412,0.5519164 -0.686535,1.2813011 -0.958051,1.6208551 -0.487745,0.609965 -0.493666,0.642565 -0.493666,2.71777 0,1.575612 -0.05223,2.097218 -0.209059,2.087667 -0.114983,-0.007 -1.291644,-0.42094 -2.614802,-0.919861 z m 0.98414,-3.029132 c 0,-1.027361 0.03927,-1.142249 0.60421,-1.767567 1.340158,-1.4833955 1.649495,-3.3723813 0.827413,-5.0526561 -1.984095,-4.05534415 -9.00677,-4.08471486 -11.067285,-0.046286 -0.906366,1.7763987 -0.62852,3.5621922 0.787118,5.0590201 1.13663,1.201818 2.41467,1.760058 4.401668,1.922621 1.043073,0.08534 1.939889,0.282739 2.858025,0.629093 0.735889,0.277603 1.394426,0.470942 1.463415,0.429643 0.06899,-0.0413 0.125436,-0.56954 0.125436,-1.173868 z"
     id="path60"
     inkscape:connector-curvature="0" />
  <path
     style="fill:#000000;fill-opacity:1;stroke-width:0.16724738"
     d="m 70.390778,15.756069 c -2.481941,-0.561509 -4.478229,-2.142942 -5.547603,-4.39474 -0.551016,-1.160284 -0.62395,-1.4715174 -0.681686,-2.9089799 -0.10404,-2.5902926 0.622594,-4.4786193 2.352184,-6.1126975 1.657429,-1.56590096 3.294339,-2.23272669 5.480852,-2.23272669 2.304252,0 4.114778,0.78762109 5.749027,2.50096109 2.255902,2.365077 2.801412,5.8310629 1.381965,8.78054 -0.693236,1.44048 -1.483498,2.371313 -2.697093,3.176852 -1.784669,1.184596 -4.071465,1.635615 -6.037646,1.190791 z m 0.09852,-6.7732393 c 0,-0.0855 -0.297435,-0.9186705 -0.660966,-1.8514908 L 69.167367,5.4353022 69.870145,5.1162501 c 0.386527,-0.1754787 0.782977,-0.3207051 0.880998,-0.3227253 0.09802,-0.00202 0.54606,0.902933 0.99564,2.0110072 0.44958,1.1080741 0.906405,2.0885327 1.015167,2.1787968 0.115598,0.095938 1.230522,0.1448437 2.683803,0.1177239 l 2.486054,-0.046393 -0.01615,-1.3379791 C 77.895567,6.052212 77.514418,5.1242789 76.341357,3.8839403 75.101617,2.5730978 73.832334,2.0320495 71.994524,2.0310458 c -1.207714,-6.596e-4 -1.572583,0.0697 -2.425087,0.4676418 -2.019255,0.9425713 -3.40612,2.890817 -3.558466,4.9988764 -0.123528,1.7092903 -0.219605,1.6407194 2.298862,1.6407194 1.23125,0 2.179465,-0.067633 2.179465,-0.1554537 z"
     id="path62"
     inkscape:connector-curvature="0" />
  <path
     style="fill:#000000;fill-opacity:1;stroke-width:0.16724738"
     d="m 80.356894,12.650479 c -0.64621,-0.64621 -0.310607,-1.451606 0.670229,-1.608448 0.470911,-0.0753 0.77301,-0.255089 1.055758,-0.62831 0.804835,-1.0623647 0.854549,-1.2729989 0.95244,-4.0354145 0.106207,-2.9970986 0.305711,-3.6693777 1.433532,-4.8306584 0.906428,-0.93331845 1.800434,-1.31741236 3.270844,-1.40526022 1.125576,-0.06724622 1.395286,-0.0228498 2.257839,0.37165811 1.204659,0.55097781 1.799515,1.09945471 2.369994,2.18521341 0.404849,0.7705259 0.446909,1.0465124 0.535247,3.5121951 0.08174,2.281423 0.147878,2.774592 0.448614,3.3449478 0.442859,0.8399007 0.994323,1.3435807 1.638714,1.4967227 0.698634,0.166033 0.920796,0.392675 0.920796,0.939359 0,0.991163 -0.01067,0.99249 -7.981464,0.99249 -7.015051,0 -7.248353,-0.01031 -7.572543,-0.334495 z"
     id="path64"
     inkscape:connector-curvature="0" />
  <path
     style="fill:#000000;fill-opacity:1;stroke-width:0.16724738"
     d="m 87.297661,15.76086 c -0.631335,-0.278678 -1.028454,-0.721946 -1.175832,-1.312472 l -0.114785,-0.45993 h 1.941476 c 1.641909,0 1.941475,0.03999 1.941475,0.259177 0,0.51482 -0.498826,1.206553 -1.063204,1.474368 -0.685636,0.325356 -0.869492,0.330028 -1.52913,0.03886 z"
     id="path66"
     inkscape:connector-curvature="0" />
</svg>
